<svg xmlns="http://www.w3.org/2000/svg" xmlns:xlink="http://www.w3.org/1999/xlink" width="2000" zoomAndPan="magnify" viewBox="0 0 1500 1499.999933" height="2000" preserveAspectRatio="xMidYMid meet" version="1.0"><defs><g/><clipPath id="dc0358b308"><path d="M 0.71875 29 L 600 29 L 600 1368 L 0.71875 1368 Z M 0.71875 29 " clip-rule="nonzero"/></clipPath><clipPath id="b51cf5f19d"><rect x="0" width="1317" y="0" height="1438"/></clipPath></defs><g transform="matrix(1, 0, 0, 1, 108, 62)"><g clip-path="url(#b51cf5f19d)"><g clip-path="url(#dc0358b308)"><g fill="#000000" fill-opacity="1"><g transform="translate(0.826503, 1367.377038)"><g><path d="M 598.875 -1141.3125 C 589.164062 -1142.519531 580.671875 -1143.726562 573.390625 -1144.9375 C 566.109375 -1146.15625 555.1875 -1146.765625 540.625 -1146.765625 C 496.9375 -1146.765625 463.257812 -1138.570312 439.59375 -1122.1875 C 415.925781 -1105.8125 404.09375 -1077.597656 404.09375 -1037.546875 L 404.09375 -919.234375 L 575.203125 -919.234375 L 575.203125 -728.109375 L 404.09375 -728.109375 L 404.09375 0 L 136.515625 0 L 136.515625 -728.109375 L 0 -728.109375 L 0 -919.234375 L 136.515625 -919.234375 L 136.515625 -1052.109375 C 136.515625 -1152.835938 162 -1225.648438 212.96875 -1270.546875 C 263.9375 -1315.441406 343.421875 -1337.890625 451.421875 -1337.890625 C 478.117188 -1337.890625 502.691406 -1337.28125 525.140625 -1336.0625 C 547.597656 -1334.851562 572.175781 -1332.429688 598.875 -1328.796875 Z M 598.875 -1141.3125 "/></g></g></g></g><g fill="#0099d8" fill-opacity="1"><g transform="translate(606.978456, 1367.377038)"><g><path d="M 677.140625 -682.59375 C 656.503906 -685.019531 633.445312 -686.234375 607.96875 -686.234375 C 538.800781 -686.234375 484.800781 -669.851562 445.96875 -637.09375 C 407.132812 -604.332031 387.71875 -546.082031 387.71875 -462.34375 L 387.71875 0 L 118.3125 0 L 118.3125 -731.75 C 113.457031 -839.75 109.210938 -903.457031 105.578125 -922.875 L 358.59375 -922.875 C 362.226562 -894.96875 364.046875 -836.71875 364.046875 -748.125 C 395.597656 -816.082031 434.128906 -862.5 479.640625 -887.375 C 525.148438 -912.25 581.273438 -924.6875 648.015625 -924.6875 L 677.140625 -924.6875 Z M 677.140625 -682.59375 "/></g></g></g></g></g><g fill="#000000" fill-opacity="1"><g transform="translate(768.130215, 355.427263)"><g><path d="M 107 -144.40625 L 107 -121.203125 L 44.796875 -121.203125 L 44.796875 -85.59375 L 102.796875 -85.59375 L 102.796875 -61.59375 L 44.796875 -61.59375 L 44.796875 0 L 13.796875 0 L 13.796875 -144.40625 Z M 107 -144.40625 "/></g></g></g><g fill="#000000" fill-opacity="1"><g transform="translate(879.327239, 355.427263)"><g><path d="M 77 -144.59375 C 93.394531 -144.59375 105.289062 -140.894531 112.6875 -133.5 C 120.09375 -126.101562 123.796875 -117.269531 123.796875 -107 C 123.796875 -98.195312 121.328125 -90.796875 116.390625 -84.796875 C 111.460938 -78.796875 103.863281 -74.394531 93.59375 -71.59375 C 102 -70.664062 108.132812 -68.097656 112 -63.890625 C 115.863281 -59.691406 118.695312 -49.125 120.5 -32.1875 C 122.300781 -15.257812 124.9375 -4.53125 128.40625 0 L 94.203125 0 C 90.734375 -24.394531 88.429688 -40.226562 87.296875 -47.5 C 86.160156 -54.769531 81.128906 -58.40625 72.203125 -58.40625 L 43.59375 -58.40625 L 43.59375 0 L 12 0 L 12 -144.59375 Z M 69.59375 -81.40625 C 76.257812 -81.40625 81.5625 -83.269531 85.5 -87 C 89.4375 -90.726562 91.40625 -95.796875 91.40625 -102.203125 C 91.40625 -108.597656 89.632812 -113.460938 86.09375 -116.796875 C 82.5625 -120.128906 77.195312 -121.796875 70 -121.796875 L 42.59375 -121.796875 L 42.59375 -81.40625 Z M 69.59375 -81.40625 "/></g></g></g><g fill="#000000" fill-opacity="1"><g transform="translate(1012.723667, 355.427263)"><g><path d="M 90 -144.59375 L 140.203125 0 L 109 0 L 98.59375 -31.203125 L 41.40625 -31.203125 L 30.59375 0 L 1 0 L 53.203125 -144.59375 Z M 49.40625 -54.59375 L 90.796875 -54.59375 L 70.796875 -116.203125 Z M 49.40625 -54.59375 "/></g></g></g><g fill="#000000" fill-opacity="1"><g transform="translate(1157.119805, 355.427263)"><g><path d="M 59.203125 -144.59375 L 113.40625 -30.796875 L 113.40625 -144.59375 L 142.203125 -144.59375 L 142.203125 0 L 99.59375 0 L 43.59375 -120 L 43.59375 0 L 14.40625 0 L 14.40625 -144.59375 Z M 59.203125 -144.59375 "/></g></g></g><g fill="#000000" fill-opacity="1"><g transform="translate(1312.715632, 355.427263)"><g><path d="M 114.59375 -144 L 114.59375 -116.59375 L 39.203125 -22.59375 L 116.203125 -23.796875 L 116.203125 0 L 5.40625 0 L 5.40625 -26.40625 L 81 -121 L 10 -120.40625 L 10 -144 Z M 114.59375 -144 "/></g></g></g></svg>